<?xml version="1.0" encoding="UTF-8"?>
<svg xmlns="http://www.w3.org/2000/svg" id="Layer_1" data-name="Layer 1" viewBox="0 0 24 24" width="24" height="24">
  <path d="M16.038,2.038,19.975,6H7a1,1,0,0,0,0,2H20c.379,0,.725-.214.895-.553a.99.99,0,0,0-.04-1.043l-5-5a1,1,0,0,0-1.414,1.414Z" fill="#ffffff"/>
  <path d="M16.945,15.592l2.122,2.122L16.945,19.836a1,1,0,1,0,1.414,1.414l2.122-2.122,2.121,2.122a1,1,0,0,0,1.414-1.414l-2.121-2.122,2.121-2.122a1,1,0,0,0-1.414-1.414l-2.121,2.122-2.122-2.122a1,1,0,0,0-1.414,1.414Z" fill="#ffffff"/>
  <path d="M6.992,12H5.969V6h8.063a1,1,0,0,0,0-2H5.969A2,2,0,0,0,3.969,6v6a2,2,0,0,0,2,2h1.023a1,1,0,0,0,0-2Z" fill="#ffffff"/>
  <path d="M7,18a1,1,0,0,0,0-2H5.969a1,1,0,0,1-1-1,1,1,0,0,0-2,0,3,3,0,0,0,3,3Z" fill="#ffffff"/>
</svg>
