<?xml version="1.0" encoding="UTF-8"?>
<svg xmlns="http://www.w3.org/2000/svg" viewBox="0 0 24 24" width="24px" height="24px">
  <path d="M 22.46 6 c -0.77 0.35 -1.6 0.58 -2.46 0.69 c 0.88 -0.53 1.56 -1.37 1.88 -2.38 c -0.83 0.5 -1.75 0.85 -2.72 1.05 C 18.37 4.5 17.26 4 16 4 c -2.35 0 -4.27 1.92 -4.27 4.29 c 0 0.34 0.04 0.67 0.11 0.98 C 8.28 9.09 5.11 7.38 3 4.79 c -0.37 0.63 -0.58 1.37 -0.58 2.15 c 0 1.49 0.75 2.81 1.91 3.56 c -0.71 -0.02 -1.37 -0.22 -1.95 -0.55 v 0.05 c 0 2.08 1.48 3.82 3.44 4.21 a 4.22 4.22 0 0 1 -1.93 0.07 a 4.28 4.28 0 0 0 4 2.98 a 8.521 8.521 0 0 1 -5.33 1.84 c -0.34 0 -0.68 -0.02 -1.02 -0.06 C 3.44 20.29 5.7 21 8.12 21 C 16 21 20.33 14.46 20.33 8.79 c 0 -0.19 0 -0.37 -0.01 -0.56 c 0.84 -0.6 1.56 -1.36 2.14 -2.23 Z" fill="#ffffff"/>
</svg>
